<svg width="150" height="150" viewBox="0 0 150 150" fill="none" xmlns="http://www.w3.org/2000/svg">
<g clip-path="url(#clip0_26_1767)">
<path d="M75 150C116.421 150 150 116.421 150 75C150 33.5786 116.421 0 75 0C33.5786 0 0 33.5786 0 75C0 116.421 33.5786 150 75 150Z" fill="#1A1A1A"/>
<path d="M29.0457 42.9542V46.9157H23.6674V63.253H18.7228V46.9157H13.3445V42.9542H29.0457ZM43.1513 63.4554C41.2429 63.4554 39.4888 63.0121 37.8886 62.1253C36.308 61.2385 35.0453 60.0049 34.1007 58.4241C33.1754 56.8242 32.7127 55.0314 32.7127 53.0458C32.7127 51.0602 33.1754 49.2772 34.1007 47.6964C35.0453 46.1156 36.308 44.882 37.8886 43.9952C39.4888 43.1084 41.2429 42.6651 43.1513 42.6651C45.0597 42.6651 46.8044 43.1084 48.385 43.9952C49.9851 44.882 51.2381 46.1156 52.1441 47.6964C53.0694 49.2772 53.532 51.0602 53.532 53.0458C53.532 55.0314 53.0694 56.8242 52.1441 58.4241C51.2188 60.0049 49.9658 61.2385 48.385 62.1253C46.8044 63.0121 45.0597 63.4554 43.1513 63.4554ZM43.1513 58.9446C44.7706 58.9446 46.0622 58.4048 47.026 57.3253C48.0091 56.2458 48.5007 54.8192 48.5007 53.0458C48.5007 51.253 48.0091 49.8266 47.026 48.7663C46.0622 47.6868 44.7706 47.147 43.1513 47.147C41.5129 47.147 40.2019 47.6771 39.2188 48.7374C38.255 49.7977 37.773 51.2337 37.773 53.0458C37.773 54.8386 38.255 56.2748 39.2188 57.3542C40.2019 58.4145 41.5129 58.9446 43.1513 58.9446ZM76.4661 63.253H71.5215L63.2515 50.7325V63.253H58.3069V42.9542H63.2515L71.5215 55.5325V42.9542H76.4661V63.253ZM89.6791 42.9542C91.8189 42.9542 93.6888 43.3784 95.2888 44.2265C96.8887 45.0746 98.1225 46.2699 98.99 47.8121C99.8768 49.335 100.32 51.0989 100.32 53.1036C100.32 55.0892 99.8768 56.8531 98.99 58.3952C98.1225 59.9373 96.8791 61.1326 95.2598 61.9807C93.6599 62.8289 91.7995 63.253 89.6791 63.253H82.0743V42.9542H89.6791ZM89.361 58.9735C91.231 58.9735 92.6864 58.4626 93.7273 57.441C94.7683 56.4193 95.2888 54.9736 95.2888 53.1036C95.2888 51.2337 94.7683 49.7783 93.7273 48.7374C92.6864 47.6964 91.231 47.1759 89.361 47.1759H87.0189V58.9735H89.361ZM114.707 63.4554C112.799 63.4554 111.045 63.0121 109.445 62.1253C107.864 61.2385 106.601 60.0049 105.657 58.4241C104.732 56.8242 104.269 55.0314 104.269 53.0458C104.269 51.0602 104.732 49.2772 105.657 47.6964C106.601 46.1156 107.864 44.882 109.445 43.9952C111.045 43.1084 112.799 42.6651 114.707 42.6651C116.616 42.6651 118.36 43.1084 119.941 43.9952C121.541 44.882 122.794 46.1156 123.7 47.6964C124.626 49.2772 125.088 51.0602 125.088 53.0458C125.088 55.0314 124.626 56.8242 123.7 58.4241C122.775 60.0049 121.522 61.2385 119.941 62.1253C118.36 63.0121 116.616 63.4554 114.707 63.4554ZM114.707 58.9446C116.327 58.9446 117.618 58.4048 118.582 57.3253C119.565 56.2458 120.057 54.8192 120.057 53.0458C120.057 51.253 119.565 49.8266 118.582 48.7663C117.618 47.6868 116.327 47.147 114.707 47.147C113.069 47.147 111.758 47.6771 110.775 48.7374C109.811 49.7977 109.329 51.2337 109.329 53.0458C109.329 54.8386 109.811 56.2748 110.775 57.3542C111.758 58.4145 113.069 58.9446 114.707 58.9446ZM132.176 63.4843C131.309 63.4843 130.596 63.2337 130.037 62.7325C129.497 62.2121 129.227 61.5759 129.227 60.8241C129.227 60.053 129.497 59.4072 130.037 58.8868C130.596 58.3663 131.309 58.106 132.176 58.106C133.025 58.106 133.719 58.3663 134.258 58.8868C134.817 59.4072 135.097 60.053 135.097 60.8241C135.097 61.5759 134.817 62.2121 134.258 62.7325C133.719 63.2337 133.025 63.4843 132.176 63.4843Z" fill="white"/>
<path d="M29.8608 82.3464C29.3909 81.2657 28.6703 80.4199 27.6993 79.809C26.7438 79.1825 25.6161 78.8693 24.3162 78.8693C23.0945 78.8693 21.9981 79.1512 21.027 79.7151C20.056 80.2789 19.2885 81.0855 18.7246 82.1349C18.1608 83.1687 17.8788 84.3746 17.8788 85.753C17.8788 87.1314 18.1608 88.3451 18.7246 89.3946C19.2885 90.444 20.056 91.2506 21.027 91.8145C21.9981 92.3783 23.0945 92.6602 24.3162 92.6602C25.4596 92.6602 26.4854 92.4175 27.3939 91.9319C28.3179 91.4308 29.0542 90.726 29.6023 89.8175C30.1662 88.8934 30.4873 87.8205 30.5656 86.5988H23.6584V85.2596H32.3041V86.4578C32.2259 87.8987 31.8343 89.2066 31.1294 90.3813C30.4246 91.5403 29.4771 92.4566 28.2867 93.1301C27.112 93.8037 25.7885 94.1404 24.3162 94.1404C22.7969 94.1404 21.4187 93.788 20.1812 93.0831C18.9438 92.3626 17.965 91.3681 17.2445 90.0994C16.5397 88.815 16.1873 87.3663 16.1873 85.753C16.1873 84.1397 16.5397 82.6988 17.2445 81.4301C17.965 80.1457 18.9438 79.1512 20.1812 78.4464C21.4187 77.7258 22.7969 77.3657 24.3162 77.3657C26.0705 77.3657 27.6053 77.8043 28.921 78.6813C30.2367 79.5584 31.1922 80.7801 31.7873 82.3464H29.8608ZM44.3383 94.1404C42.8191 94.1404 41.4408 93.788 40.2034 93.0831C38.9661 92.3626 37.9872 91.3681 37.2666 90.0994C36.5618 88.815 36.2094 87.3663 36.2094 85.753C36.2094 84.1397 36.5618 82.6988 37.2666 81.4301C37.9872 80.1457 38.9661 79.1512 40.2034 78.4464C41.4408 77.7258 42.8191 77.3657 44.3383 77.3657C45.8734 77.3657 47.2595 77.7258 48.4967 78.4464C49.7341 79.1512 50.7052 80.1457 51.41 81.4301C52.1148 82.6988 52.4672 84.1397 52.4672 85.753C52.4672 87.3663 52.1148 88.815 51.41 90.0994C50.7052 91.3681 49.7341 92.3626 48.4967 93.0831C47.2595 93.788 45.8734 94.1404 44.3383 94.1404ZM44.3383 92.7072C45.56 92.7072 46.6564 92.4253 47.6275 91.8615C48.5987 91.2976 49.366 90.491 49.9299 89.4416C50.4937 88.3766 50.7756 87.1469 50.7756 85.753C50.7756 84.3591 50.4937 83.1374 49.9299 82.088C49.366 81.0385 48.5987 80.2319 47.6275 79.6681C46.6564 79.1042 45.56 78.8223 44.3383 78.8223C43.1166 78.8223 42.0203 79.1042 41.0491 79.6681C40.0781 80.2319 39.3106 81.0385 38.7467 82.088C38.1829 83.1374 37.901 84.3591 37.901 85.753C37.901 87.1469 38.1829 88.3766 38.7467 89.4416C39.3106 90.491 40.0781 91.2976 41.0491 91.8615C42.0203 92.4253 43.1166 92.7072 44.3383 92.7072ZM58.6953 77.5536V87.891C58.6953 89.5198 59.079 90.726 59.8465 91.509C60.6296 92.2921 61.6946 92.6837 63.0417 92.6837C64.3886 92.6837 65.4381 92.3001 66.1899 91.5325C66.9572 90.7495 67.3411 89.5355 67.3411 87.891V77.5536H68.9857V87.8675C68.9857 89.9507 68.4296 91.5168 67.3176 92.5663C66.2211 93.6157 64.788 94.1404 63.0182 94.1404C61.2482 94.1404 59.8073 93.6157 58.6953 92.5663C57.5988 91.5168 57.0507 89.9507 57.0507 87.8675V77.5536H58.6953ZM83.0381 93.9759L78.9737 87.1157H75.9429V93.9759H74.2984V77.5536H79.2321C81.0646 77.5536 82.4508 77.9922 83.3905 78.8693C84.3458 79.7463 84.8237 80.8975 84.8237 82.3229C84.8237 83.5133 84.479 84.5313 83.7899 85.3771C83.1164 86.2072 82.1139 86.7475 80.7827 86.9982L85.0116 93.9759H83.0381ZM75.9429 85.7765H79.2556C80.5398 85.7765 81.5031 85.4633 82.1454 84.8368C82.8032 84.2102 83.1321 83.3723 83.1321 82.3229C83.1321 81.2422 82.8187 80.4121 82.1923 79.8325C81.5658 79.2374 80.579 78.9398 79.2321 78.9398H75.9429V85.7765ZM105.778 77.7651V93.9759H104.134V81.0307L98.3542 93.9759H97.156L91.3765 81.0777V93.9759H89.7319V77.7651H91.4705L97.7434 91.8145L104.016 77.7651H105.778ZM112.798 78.8928V85.0247H119.024V86.3874H112.798V92.6133H119.729V93.9759H111.154V77.5301H119.729V78.8928H112.798ZM134.223 77.5536V78.9163H129.665V93.9759H128.021V78.9163H123.439V77.5536H134.223ZM54.7705 103.963C54.7705 105.372 54.3084 106.508 53.3844 107.369C52.4603 108.231 51.0742 108.661 49.226 108.661H45.9133V115.663H44.2687V99.2404H49.226C51.0585 99.2404 52.4369 99.671 53.3609 100.533C54.3006 101.394 54.7705 102.537 54.7705 103.963ZM49.226 107.252C51.7946 107.252 53.079 106.155 53.079 103.963C53.079 102.866 52.7735 102.036 52.1627 101.472C51.5519 100.908 50.5729 100.627 49.226 100.627H45.9133V107.252H49.226ZM60.8191 99.2404V115.663H59.1746V99.2404H60.8191ZM67.2451 114.206H75.6325V115.663H65.3186V114.347L73.5885 100.697H65.4596V99.2404H75.515V100.556L67.2451 114.206ZM81.2332 114.206H89.6206V115.663H79.3067V114.347L87.5766 100.697H79.4477V99.2404H89.5031V100.556L81.2332 114.206ZM103.679 111.763H96.2079L94.7748 115.663H93.0363L99.0272 99.4518H100.883L106.851 115.663H105.112L103.679 111.763ZM103.186 110.4L99.9435 101.519L96.7013 110.4H103.186Z" fill="#91A683"/>
</g>
<defs>
<clipPath id="clip0_26_1767">
<rect width="150" height="150" fill="white"/>
</clipPath>
</defs>
</svg>
